<svg width="45" height="46" viewBox="0 0 45 46" fill="none" xmlns="http://www.w3.org/2000/svg">
<rect x="15.3468" y="3.10229" width="7.48971" height="30.3994" rx="3.74486" transform="rotate(30 15.3468 3.10229)" fill="#51F5C1"/>
<rect x="37.4348" y="13.6385" width="7.80707" height="32.3051" rx="3.90353" transform="rotate(30 37.4348 13.6385)" fill="#0AAA76"/>
<path d="M9.28261 32.9843C5.57003 31.474 -0.0522521 29.5745 1.95176 26.1035C3.96512 22.6162 9.4418 24.771 13.1834 26.2592C14.7947 26.9001 16.7097 27.7995 18.8954 29.0614C21.0811 30.3233 22.8175 31.532 24.1781 32.607C27.3377 35.1032 31.9422 38.7688 29.9288 42.2561C27.9248 45.7271 23.4686 41.8078 20.3044 39.3477C18.9576 38.3007 17.2194 37.1086 14.9918 35.8225C12.7643 34.5364 10.8628 33.6271 9.28261 32.9843Z" fill="white"/>
<path d="M24.6959 6.28887C21.5317 3.82883 17.0755 -0.0904724 15.0715 3.38057C13.0581 6.86782 17.6626 10.5334 20.8222 13.0296C22.1828 14.1046 23.9192 15.3133 26.1049 16.5752C28.2906 17.8371 30.2056 18.7365 31.8169 19.3774C35.5585 20.8656 41.0352 23.0204 43.0485 19.5331C45.0526 16.0621 39.4303 14.1626 35.7177 12.6523C34.1375 12.0095 32.236 11.1002 30.0085 9.81412C27.7809 8.52806 26.0427 7.33597 24.6959 6.28887Z" fill="#3793E8"/>
<rect x="16.6685" y="0.813049" width="7.48971" height="17.1823" rx="3.74486" transform="rotate(30 16.6685 0.813049)" fill="#51F5C1"/>
<rect x="30.7783" y="25.1684" width="7.80707" height="18.9918" rx="3.90353" transform="rotate(30 30.7783 25.1684)" fill="#0AAA76"/>
</svg>
